HIERARCHY
ROOT Hips
{
  OFFSET -35.4901 99.2528 17.4586
  CHANNELS 6 Xposition Yposition Zposition Zrotation Xrotation Yrotation
  JOINT LeftUpLeg
  {
    OFFSET 8.64259 1.95398 -2.38835
    CHANNELS 3 Zrotation Xrotation Yrotation
    JOINT LeftLeg
    {
      OFFSET 43.7702 0 0
      CHANNELS 3 Zrotation Xrotation Yrotation
      JOINT LeftFoot
      {
        OFFSET 40.6238 0 0
        CHANNELS 3 Zrotation Xrotation Yrotation
        JOINT LeftToeBase
        {
          OFFSET 12.7242 0 0
          CHANNELS 3 Zrotation Xrotation Yrotation
          End Site
          {
            OFFSET 0 0 0
          }
        }
      }
    }
  }
  JOINT RightUpLeg
  {
    OFFSET -8.2249 1.95398 -2.59336
    CHANNELS 3 Zrotation Xrotation Yrotation
    JOINT RightLeg
    {
      OFFSET 43.5653 0 0
      CHANNELS 3 Zrotation Xrotation Yrotation
      JOINT RightFoot
      {
        OFFSET 40.6238 0 0
        CHANNELS 3 Zrotation Xrotation Yrotation
        JOINT RightToeBase
        {
          OFFSET 12.7242 0 0
          CHANNELS 3 Zrotation Xrotation Yrotation
          End Site
          {
            OFFSET 0 0 0
          }
        }
      }
    }
  }
  JOINT Spine
  {
    OFFSET 0.165834 0.87714 6.61349
    CHANNELS 3 Zrotation Xrotation Yrotation
    JOINT Spine1
    {
      OFFSET 7.38963 1.71661e-005 0
      CHANNELS 3 Zrotation Xrotation Yrotation
      JOINT Spine2
      {
        OFFSET 11.9445 1.14441e-005 0
        CHANNELS 3 Zrotation Xrotation Yrotation
        JOINT Spine3
        {
          OFFSET 14.7254 4.19617e-005 0
          CHANNELS 3 Zrotation Xrotation Yrotation
          JOINT Spine4
          {
            OFFSET 10.9679 0 0
            CHANNELS 3 Zrotation Xrotation Yrotation
            JOINT RightShoulder
            {
              OFFSET 2.46616 -1.6653 3.69651
              CHANNELS 3 Zrotation Xrotation Yrotation
              JOINT RightArm
              {
                OFFSET 13.0012 0 0
                CHANNELS 3 Zrotation Xrotation Yrotation
                JOINT RightForeArm
                {
                  OFFSET 28.7848 1.52588e-005 0
                  CHANNELS 3 Zrotation Xrotation Yrotation
                  JOINT RightHand
                  {
                    OFFSET 26.5688 1.52588e-005 0
                    CHANNELS 3 Zrotation Xrotation Yrotation
                    End Site
                    {
                      OFFSET 0 0 0
                    }
                  }
                }
              }
            }
            JOINT LeftShoulder
            {
              OFFSET 2.38034 -1.29275 -3.7523
              CHANNELS 3 Zrotation Xrotation Yrotation
              JOINT LeftArm
              {
                OFFSET 16.3182 6.10351e-005 0
                CHANNELS 3 Zrotation Xrotation Yrotation
                JOINT LeftForeArm
                {
                  OFFSET 27.0901 0 0
                  CHANNELS 3 Zrotation Xrotation Yrotation
                  JOINT LeftHand
                  {
                    OFFSET 24.5451 1.52588e-005 0
                    CHANNELS 3 Zrotation Xrotation Yrotation
                    End Site
                    {
                      OFFSET 0 0 0
                    }
                  }
                }
              }
            }
            JOINT Neck
            {
              OFFSET 5.0226 -0.0266342 0
              CHANNELS 3 Zrotation Xrotation Yrotation
              JOINT Head
              {
                OFFSET 6.69364 2.86102e-005 0
                CHANNELS 3 Zrotation Xrotation Yrotation
                End Site
                {
                  OFFSET 0 0 0
                }
              }
            }
          }
        }
      }
    }
  }
}
MOTION
Frames:	18
Frame Time:	0.0416667
35.7715 9.89045 40.3827 4.15305 -9.88915 -1.07122 -175.698 -1.19595 92.7952 -31.6455 38.3459 5.31806 89.7421 14.854 2.63989 9.85519 10.3535 -10.8666 176.897 -13.3671 90.5829 -10.9395 -22.565 -8.51849 97.5856 -18.6138 -2.26993 32.9552 0.477935 -2.15419 1.2678 9.26728 -91.2044 8.35557 1.99947 -2.50227 -3.31642 1.88745 -2.58782 -25.8528 2.65894 -1.78579 -5.8401 2.65894 -1.78579 105.375 20.3471 -42.7092 43.5589 -32.1496 -21.5285 8.17594 5.41169 -117.17 112.342 -12.8602 -15.3343 -67.619 -18.832 120.673 -20.5062 32.3887 -37.3558 113.014 -23.8699 -80.4573 -63.2646 35.4023 -61.451 71.923 4.66822 11.7539 -11.1953 -5.54775 0.752139 
35.7553 9.87889 40.335 4.06161 -9.92418 -1.04258 -175.612 -1.11101 92.8842 -31.8237 38.0435 5.17225 89.9797 14.9013 2.35261 9.67899 10.77 -11.3066 177.066 -13.5257 90.7316 -10.9989 -22.714 -8.65608 98.6165 -19.3368 -2.71642 30.5778 0.164376 -0.740759 1.28214 9.25735 -91.1909 8.37579 2.03376 -2.47844 -3.29611 1.92275 -2.5655 -25.8332 2.68448 -1.75273 -5.82062 2.68449 -1.75274 105.417 20.1917 -42.898 43.4903 -31.6386 -21.22 9.34994 5.22339 -117.422 112.749 -11.505 -14.4126 -67.7465 -18.5895 120.479 -20.8199 31.937 -37.1446 111.54 -24.1487 -81.01 -63.9939 34.75 -59.8501 71.946 4.52139 11.6419 -11.4033 -5.5923 0.717498 
35.7663 9.89586 40.3335 4.12202 -9.86798 -1.02967 -175.65 -1.00669 92.8623 -31.8933 38.0835 5.22452 89.9111 14.8645 2.33369 10.7219 9.48276 -10.065 177.169 -13.4659 90.8123 -11.0094 -22.6433 -8.72338 98.3913 -19.3027 -2.91176 31.138 0.247911 -1.08094 1.27076 9.2303 -91.1842 8.42949 2.01339 -2.46559 -3.2424 1.90296 -2.55177 -25.7793 2.6612 -1.7466 -5.76672 2.66119 -1.74659 105.41 20.1577 -43.1281 43.3485 -32.1446 -20.9584 6.16268 5.44088 -117.077 111.051 -15.1874 -17.0672 -67.8437 -18.728 120.202 -20.7475 31.7661 -36.7349 111.947 -24.1443 -80.8798 -63.8428 34.8397 -60.1181 71.8331 4.5366 11.629 -11.5646 -5.58531 0.931136 
35.7562 9.90559 40.4007 4.28709 -9.81766 -1.07012 -175.649 -1.00708 92.858 -31.6678 38.2074 5.19018 89.815 14.754 2.13183 10.061 9.86352 -10.3426 177.24 -13.3113 90.8391 -11.0042 -22.5433 -8.78106 97.1338 -18.5692 -2.75208 33.933 0.551121 -2.56771 1.23532 9.20561 -91.1788 8.47808 1.94448 -2.4522 -3.19388 1.83471 -2.53535 -25.7299 2.59145 -1.75455 -5.71731 2.59145 -1.75456 105.42 20.0595 -43.4317 43.2012 -32.065 -20.8321 5.81754 5.68174 -117.009 110.794 -15.9815 -17.6556 -67.9507 -18.6857 119.974 -20.6653 32.0827 -36.1804 115.147 -23.7139 -79.9095 -61.9547 36.5539 -64.3935 71.721 4.47193 11.7169 -11.6598 -5.65928 0.585339 
35.753 9.90724 40.3509 4.14439 -9.81869 -1.05788 -175.662 -0.956742 92.827 -31.9028 38.1641 5.22935 89.7381 14.8438 2.56185 10.3307 10.5732 -11.2599 177.378 -13.4186 90.922 -11.0475 -22.5316 -8.90165 98.1772 -19.0935 -2.70923 31.2963 0.57442 -2.08571 1.25446 9.18446 -91.1631 8.52088 1.98909 -2.42524 -3.15098 1.88045 -2.51039 -25.688 2.62589 -1.71541 -5.67538 2.62589 -1.71541 105.432 19.9082 -43.9179 43.5005 -31.6216 -20.0138 7.60923 5.15594 -117.592 111.916 -13.7902 -16.0287 -68.096 -18.5553 119.692 -20.9325 31.436 -35.9757 111.146 -24.384 -81.1662 -64.0966 34.5828 -59.5331 71.618 4.45903 11.6305 -11.7367 -5.58965 0.606723 
35.7631 9.89413 40.3278 4.19803 -9.87261 -1.07809 -175.686 -0.960496 92.805 -32.0367 38.093 5.26878 89.831 14.8715 2.46988 10.0702 11.3737 -12.1256 177.409 -13.5275 90.9444 -11.056 -22.5397 -8.96241 98.9382 -19.6106 -2.98056 29.8562 0.289005 -0.960532 1.23226 9.16756 -91.1561 8.55409 1.9475 -2.40981 -3.11776 1.83958 -2.49315 -25.6544 2.5816 -1.71321 -5.64173 2.5816 -1.71321 105.391 19.9536 -44.1992 43.489 -31.854 -19.8845 6.79166 5.38901 -117.366 111.157 -14.7891 -16.819 -68.2225 -18.6002 119.384 -20.9863 31.3482 -35.3798 112.291 -24.3117 -80.8407 -63.3492 35.2698 -61.2066 71.5193 4.46969 11.5662 -11.9731 -5.50627 0.502325 
35.741 9.91877 40.3139 4.10608 -9.80767 -1.03733 -175.76 -0.897557 92.8149 -32.0067 37.6729 5.34361 90.2012 14.8335 1.77868 10.4588 9.95721 -10.5607 177.591 -13.46 91.0955 -11.0935 -22.4916 -9.06396 98.7808 -19.6509 -3.25271 29.9363 0.202045 -0.73684 1.23335 9.13792 -91.1514 8.61348 1.95105 -2.4026 -3.0584 1.84345 -2.48609 -25.5951 2.58281 -1.70524 -5.58244 2.58282 -1.70525 105.397 19.8619 -44.5026 43.3984 -31.6054 -19.7028 7.03488 5.49536 -117.357 111.731 -14.2903 -16.3613 -68.3534 -18.6705 119.057 -20.9302 30.9174 -34.843 110.998 -24.6597 -81.2401 -64.0991 34.7366 -59.7292 71.3386 4.39244 11.4925 -12.1488 -5.48601 0.434102 
35.7639 9.92871 40.3268 4.24116 -9.92698 -0.993435 -175.669 -0.932638 92.8924 -32.1258 38.0529 5.32536 89.9676 14.8413 2.11859 10.4241 10.2661 -10.9174 177.621 -13.5838 91.1461 -11.0611 -22.3253 -9.0759 98.797 -19.6354 -3.19331 29.9291 0.434146 -1.37959 1.21703 9.12188 -91.145 8.64509 1.92096 -2.38898 -3.02673 1.81399 -2.47116 -25.5632 2.55003 -1.7013 -5.55052 2.55003 -1.70131 105.399 19.7378 -44.9739 43.4403 -31.6622 -19.1698 6.36822 5.173 -117.377 111.511 -15.0759 -16.9275 -68.5466 -18.6411 118.624 -20.7016 31.1296 -34.6144 113.85 -24.163 -80.337 -62.4513 36.113 -63.2797 71.2531 4.32034 11.6727 -12.2917 -5.64003 0.041826 
35.7694 9.92728 40.3282 4.09154 -9.92092 -1.06393 -175.62 -1.11072 92.8631 -31.7586 38.2082 5.17297 89.8993 14.9043 2.49682 9.66972 11.2009 -11.8067 177.653 -13.5292 91.0977 -11.1205 -22.4665 -9.16602 98.3588 -19.4206 -3.25285 30.8993 0.195243 -0.887043 1.21319 9.08892 -91.1298 8.71102 1.9193 -2.36078 -2.96081 1.81356 -2.44292 -25.4975 2.53996 -1.67489 -5.48486 2.53996 -1.6749 105.391 19.6159 -45.528 43.3763 -31.4538 -18.8154 6.07016 5.4299 -117.227 111.086 -15.7567 -17.4638 -68.6968 -18.7047 118.256 -21.1737 30.2711 -33.9304 110.753 -24.7636 -81.4252 -64.0688 34.6615 -59.6612 71.1135 4.38763 11.5919 -12.3521 -5.51548 0.195896 
35.7644 9.91368 40.3603 4.08867 -9.92691 -1.05351 -175.649 -1.16671 92.8592 -31.7007 38.0868 5.23035 89.7285 14.7972 2.45576 10.6252 10.5223 -11.274 177.726 -13.504 91.1385 -11.1221 -22.3891 -9.21115 97.9225 -19.0346 -2.90884 32.0523 -0.00731865 -0.475418 1.20275 9.0584 -91.1134 8.77198 1.90498 -2.32936 -2.8998 1.80065 -2.41089 -25.4366 2.51687 -1.64923 -5.42398 2.51687 -1.64922 105.387 19.5284 -45.9053 43.2777 -31.1384 -18.5196 6.85773 5.13573 -117.149 111.184 -15.302 -17.1865 -68.921 -18.6479 117.76 -21.1053 29.9288 -33.2123 110.426 -24.9812 -81.5888 -64.06 34.7202 -59.742 70.9622 4.4065 11.4783 -12.5592 -5.39905 0.267015 
35.8018 9.89712 40.4331 4.11625 -9.96053 -1.03955 -175.582 -1.26998 92.8855 -31.4739 38.2393 5.12049 89.7037 14.7702 2.39754 8.60307 11.3462 -11.6701 177.749 -13.4146 91.0867 -11.0321 -21.7628 -9.22497 96.9468 -17.9798 -1.61157 35.6455 1.04406 -4.63058 1.18918 9.02687 -91.0988 8.83453 1.88374 -2.30093 -2.83722 1.78068 -2.38157 -25.374 2.48807 -1.62849 -5.36139 2.48807 -1.6285 105.414 19.2806 -46.5122 43.3757 -30.7582 -17.9619 8.09791 5.26455 -117.393 111.914 -12.645 -15.2515 -69.1139 -18.6313 117.321 -21.0085 29.6825 -32.8197 109.922 -24.9542 -81.7739 -64.4789 34.6093 -59.1931 70.8126 4.13026 11.3436 -12.7643 -5.51085 0.182941 
35.7632 9.90343 40.4248 4.19613 -9.95073 -1.03989 -175.578 -1.2869 92.9168 -31.4436 38.6742 5.20766 89.5485 14.792 2.7176 10.197 10.7389 -11.4141 177.834 -13.4266 91.1721 -11.027 -21.6907 -9.27162 96.7509 -17.928 -1.72809 34.9053 0.700967 -3.30832 1.15839 8.98827 -91.0881 8.91113 1.82619 -2.27808 -2.7607 1.72419 -2.35622 -25.2969 2.42633 -1.62402 -5.28426 2.42632 -1.62401 105.417 19.1109 -47.0717 43.0466 -30.894 -17.6516 6.6617 5.2997 -117.268 110.036 -15.8934 -17.8392 -69.3171 -18.5646 116.875 -21.3188 29.3326 -32.0677 110.077 -25.0062 -81.7894 -64.2918 34.7466 -59.5641 70.6272 4.06901 11.3856 -12.9042 -5.52647 -0.198052 
35.8056 9.9075 40.4177 4.04939 -10.0282 -1.07645 -175.615 -1.44452 92.8382 -31.3271 38.3732 5.18894 89.4957 14.7307 2.68684 10.0116 11.0019 -11.6736 177.779 -13.4679 91.057 -11.076 -21.8869 -9.29852 96.5711 -17.6618 -1.34197 36.1916 0.972369 -4.56427 1.16139 8.95604 -91.0675 8.97564 1.84068 -2.24011 -2.69606 1.74034 -2.31893 -25.2329 2.42874 -1.58342 -5.22023 2.42874 -1.58341 105.382 18.9993 -47.8197 43.3505 -30.3813 -16.8372 9.29077 4.5708 -117.673 111.502 -12.7244 -15.5082 -69.5292 -18.7782 116.314 -21.0034 28.7015 -31.5425 109.571 -25.1349 -82.0518 -64.4545 34.6196 -59.2418 70.4174 4.15285 11.3274 -13.0368 -5.38964 -0.114104 
35.7914 9.89963 40.4401 4.07523 -10.1034 -1.02033 -175.581 -1.57004 92.9056 -31.269 38.4019 5.21532 89.3926 14.7278 2.84363 10.1365 11.4602 -12.2449 177.862 -13.5424 91.1277 -11.0177 -21.4574 -9.32244 96.5033 -17.3254 -0.596976 36.1096 0.969563 -4.53145 1.14878 8.91844 -91.0513 9.05052 1.82197 -2.20889 -2.62117 1.72302 -2.28691 -25.158 2.40151 -1.55927 -5.14541 2.40152 -1.55928 105.379 18.7725 -48.5864 43.3389 -30.2666 -16.1654 8.30435 4.79529 -117.507 110.676 -13.678 -16.2536 -69.8041 -18.6436 115.723 -21.0757 28.7489 -31.0315 111.96 -24.6401 -81.4136 -62.8833 36.0317 -62.7362 70.1873 4.1751 11.2053 -13.1645 -5.24942 -0.0606474 
35.7949 9.92049 40.4443 4.08397 -10.1739 -0.971097 -175.539 -1.54422 92.9783 -31.364 38.2126 5.19386 89.4967 14.6465 2.3919 9.51586 11.25 -11.8202 177.875 -13.5985 91.1928 -11.0287 -21.6088 -9.30372 96.362 -17.4869 -1.14514 37.1048 1.05138 -5.13865 1.12006 8.87796 -91.0457 9.13083 1.76627 -2.19633 -2.54089 1.66791 -2.27191 -25.0771 2.34461 -1.56403 -5.06447 2.34461 -1.56404 105.335 18.6537 -49.4097 43.2279 -29.9692 -15.5738 5.82899 4.91925 -117.176 109.352 -16.3078 -18.2244 -70.0448 -18.9012 115.085 -21.3542 27.7185 -30.0788 108.367 -25.1647 -82.9104 -63.8973 35.1273 -60.481 69.9392 4.01345 11.1798 -13.3486 -5.30141 -0.377862 
35.8046 9.93167 40.3718 4.07655 -10.1081 -1.01217 -175.567 -1.32888 92.9112 -31.721 38.5481 5.23425 89.4724 14.8001 2.85708 9.86184 10.9688 -11.5905 177.826 -13.6484 91.1469 -11.0269 -21.6089 -9.30636 97.9093 -18.4826 -1.64322 32.9656 0.530165 -2.27435 1.09386 8.81871 -91.0273 9.24883 1.72097 -2.15981 -2.42292 1.62428 -2.23344 -24.9588 2.29044 -1.54281 -4.94625 2.29044 -1.54282 105.306 18.4382 -50.3554 43.2005 -29.5641 -14.8153 7.37465 4.55873 -117.559 110.406 -14.618 -16.9031 -70.3289 -18.8152 114.455 -21.4793 27.4608 -29.1084 109.792 -25.0585 -82.3048 -63.9657 35.2233 -60.5199 69.6384 4.03641 11.1164 -13.5113 -5.18269 -0.450885 
35.7904 9.91829 40.3804 3.98561 -10.223 -1.00111 -175.509 -1.55444 92.972 -31.5351 38.5386 5.1947 89.4547 14.7969 2.90891 10.0223 11.0703 -11.7554 177.851 -13.6953 91.1546 -11.0193 -21.4767 -9.32411 97.5968 -18.2091 -1.36845 34.7545 0.926844 -3.97993 1.09303 8.77895 -90.997 9.32834 1.73209 -2.10287 -2.34329 1.63789 -2.17705 -24.88 2.28393 -1.48514 -4.86733 2.28394 -1.48516 105.339 18.0227 -51.2012 43.1845 -29.3276 -14.0148 7.2355 4.83884 -117.454 110.271 -14.6096 -16.9062 -70.6965 -18.7634 113.618 -21.2258 27.0695 -28.1969 109.046 -25.3928 -83.0037 -61.9281 36.4136 -64.2805 69.2911 3.89038 10.9053 -13.6573 -5.12062 -0.322625 
35.8043 9.92102 40.4415 4.00772 -10.136 -0.999898 -175.537 -1.54915 92.9359 -31.3565 38.5597 5.20498 89.2432 14.7218 3.05406 10.0947 11.872 -12.7199 177.806 -13.5242 91.09 -11.0006 -21.4318 -9.26914 96.4746 -17.3458 -0.653868 36.4866 0.855432 -4.27207 1.07441 8.71321 -90.9703 9.45937 1.70564 -2.05148 -2.21221 1.61372 -2.12456 -24.749 2.24326 -1.44408 -4.73635 2.24327 -1.44408 105.354 17.6913 -51.9423 42.9488 -29.1863 -13.4484 6.42776 4.72154 -117.258 109.894 -15.658 -17.6836 -71.074 -18.6418 112.774 -21.8056 26.0562 -27.0632 107.773 -25.5592 -83.38 -63.7721 35.1566 -60.6241 68.9533 3.79976 10.7551 -13.8794 -5.02233 -0.467069 
